# xmcd
#
# Track frame offsets:
#	150
#	23385
#	36953
#	57245
#	67163
#	88722
#	107564
#	121865
#	139812
#	157332
#	169773
#	186145
#	203768
#	222479
#	247767
#	260504
#	269423
#
# Disc length: 3952 seconds
#
# Revision: 0
# Processed by: cddbd v1.4PL0 Copyright (c) Steve Scherf et al.
# Submitted via: audiograbber 1.82.01
#
DISCID=f60f6e11
DTITLE=Westernhagen - Best Of 1
DYEAR=1900
DGENRE=
TTITLE0=Mit 18
TTITLE1=Oh, Margarete
TTITLE2=Steh Auf
TTITLE3=Was Ist Los Mit Mir
TTITLE4=Weil Ich Dich Liebe
TTITLE5=Willi Wucher
TTITLE6=Neues Von Hilde
TTITLE7=Ladykiller
TTITLE8=Krieg
TTITLE9=Ich Bin Zum Wetten Geboren
TTITLE10=Hier In Der Kneipe
TTITLE11=Lady
TTITLE12=Dicke
TTITLE13=Giselher
TTITLE14=Mit Pfefferminz Bin Ich Dein Prinz
TTITLE15=Sie Hat Meine Lunte Gefunden
TTITLE16=Nimm Mich Mit
EXTD=
EXTT0=
EXTT1=
EXTT2=
EXTT3=
EXTT4=
EXTT5=
EXTT6=
EXTT7=
EXTT8=
EXTT9=
EXTT10=
EXTT11=
EXTT12=
EXTT13=
EXTT14=
EXTT15=
EXTT16=
PLAYORDER=
